<svg xmlns="http://www.w3.org/2000/svg" id="Layer_1" data-name="Layer 1" viewBox="0 0 84.33 122.88" style="
    fill: #fff;
    stroke: #000000;
    stroke-width: 1px;
    stroke-dasharray: 0;
    stroke-linejoin: round;
    width: 250px;
    height: 250px;
    "><defs><style>.cls-1{fill-rule:evenodd;}</style></defs><title>hand-holding-mobile-phone</title><path class="cls-1" d="M75.59,28.93c3.65-.37,6.1,1.18,6.54,3.57.65,3.52-2.77,6.1-5.23,8-.43.33-.87.65-1.31.95V28.93Zm-58-16.51h0c5.84-.28,7.37,5.84,6.86,10.71-.3,2.87-1.06,3.92-2.32,6.44-1.48,2.39-3,4.72-4.4,7.17V90.21a12.1,12.1,0,0,0,.93,4.65,12.28,12.28,0,0,0,2.63,3.93A12.06,12.06,0,0,0,25,101.36l.15.07a12.1,12.1,0,0,0,4.65.93H61.22C55.09,108.11,48.48,112,41,112.22l-7.77,9.44c-1.68,1.54-3.63,1.71-6,0L4.7,106.58C2.36,105,.05,103.43,0,100.23,0,98,1.34,95.72,3.36,93.48a14.08,14.08,0,0,0,2-7.18C5.53,81.13,3,76.61,2.63,71c-.43-6.3,0-14.79,1-24.54l.46-13.17A7.45,7.45,0,0,1,5.26,30L16.84,12.51l.71-.09Zm57.31,42.7V51.65a12.13,12.13,0,0,1,8,3.87c3,3.61,1,8.77-2.24,11.25a4.91,4.91,0,0,1-2.31.91l.31.06c3.15,2.65,4.69,5.62,4.09,8.5-.87,4.24-7.66,8.62-11.74,8.92a4.65,4.65,0,0,1-4.51-2.22c-2.32-3.6,1.19-7.45,3.61-9.84a15.89,15.89,0,0,1,4.72-3.28V67.17a5,5,0,0,1-3.07-3.35c-.7-3.18,1.34-6.26,3.14-8.7Zm-.35,31.15.27-1.4c3.29-.26,5.71.86,6.94,3.85.53,3,.22,6-2.55,7.7C76.6,98,71,99,68.3,97.22c-2.88-1.9-2.51-5.17-.33-7.49a12.06,12.06,0,0,1,6.54-3.46ZM29.83,0H63.45A9.54,9.54,0,0,1,73,9.54V51.31a1.87,1.87,0,0,0,0,.34v2.86a21.88,21.88,0,0,0-2.34,3.91,11.27,11.27,0,0,0-.78,2.45V10.4H23.44v2a6.85,6.85,0,0,0-3.14-1.8v-1A9.51,9.51,0,0,1,29.83,0Zm16.8,89.49a3.93,3.93,0,1,1-3.92,3.92,3.91,3.91,0,0,1,3.92-3.92Zm23.2-25.38,0,.12a6,6,0,0,0,1.49,2.82,7.19,7.19,0,0,0,1.53,1.26v.33a18,18,0,0,0-1.64,1c-.49.33-.95.7-1.41,1.08V64.11ZM67.71,86.5h0a6.09,6.09,0,0,0,.75.28,12.08,12.08,0,0,0-1.89,1.64,8.66,8.66,0,0,0-1,1.22,7.2,7.2,0,0,0-1.27,4.19A5.91,5.91,0,0,0,66.26,98a7.1,7.1,0,0,0,1,.78l.14.09a9.45,9.45,0,0,1-3.94.85H29.83a9.53,9.53,0,0,1-9.53-9.54V36.44l.14-.26,3-4.85V86.5H67.71Z"/></svg>