<svg xmlns="http://www.w3.org/2000/svg" xmlns:xlink="http://www.w3.org/1999/xlink" width="250" zoomAndPan="magnify" viewBox="0 0 187.5 187.499992" height="250" preserveAspectRatio="xMidYMid meet" version="1.0"><defs><clipPath id="47a99a6388"><path d="M 0 0 L 187 0 L 187 187 L 0 187 Z M 0 0 " clip-rule="nonzero"/></clipPath></defs><g clip-path="url(#47a99a6388)"><path fill="#000000" d="M 93.75 0 C 92.214844 0 90.683594 0.0390625 89.148438 0.113281 C 87.617188 0.1875 86.085938 0.300781 84.5625 0.453125 C 83.035156 0.601562 81.511719 0.789062 79.992188 1.015625 C 78.476562 1.238281 76.964844 1.503906 75.460938 1.800781 C 73.957031 2.101562 72.457031 2.4375 70.96875 2.808594 C 69.480469 3.183594 68.003906 3.589844 66.535156 4.035156 C 65.066406 4.480469 63.609375 4.964844 62.167969 5.480469 C 60.722656 5.996094 59.289062 6.550781 57.875 7.136719 C 56.457031 7.722656 55.054688 8.34375 53.667969 9 C 52.28125 9.65625 50.910156 10.347656 49.554688 11.070312 C 48.203125 11.792969 46.867188 12.550781 45.554688 13.339844 C 44.238281 14.125 42.941406 14.949219 41.664062 15.800781 C 40.390625 16.652344 39.136719 17.535156 37.902344 18.449219 C 36.671875 19.363281 35.460938 20.308594 34.277344 21.28125 C 33.089844 22.253906 31.929688 23.253906 30.792969 24.285156 C 29.65625 25.316406 28.542969 26.375 27.457031 27.457031 C 26.375 28.542969 25.316406 29.65625 24.285156 30.792969 C 23.253906 31.929688 22.253906 33.089844 21.28125 34.277344 C 20.308594 35.460938 19.363281 36.671875 18.449219 37.902344 C 17.535156 39.136719 16.652344 40.390625 15.800781 41.664062 C 14.949219 42.941406 14.125 44.238281 13.339844 45.554688 C 12.550781 46.867188 11.792969 48.203125 11.070312 49.554688 C 10.347656 50.910156 9.65625 52.28125 9 53.667969 C 8.34375 55.054688 7.722656 56.457031 7.136719 57.875 C 6.550781 59.289062 5.996094 60.722656 5.480469 62.167969 C 4.964844 63.609375 4.480469 65.066406 4.035156 66.535156 C 3.589844 68.003906 3.183594 69.480469 2.808594 70.96875 C 2.4375 72.457031 2.101562 73.957031 1.800781 75.460938 C 1.503906 76.964844 1.238281 78.476562 1.015625 79.992188 C 0.789062 81.511719 0.601562 83.035156 0.453125 84.5625 C 0.300781 86.085938 0.1875 87.617188 0.113281 89.148438 C 0.0390625 90.683594 0 92.214844 0 93.75 C 0 95.285156 0.0390625 96.816406 0.113281 98.351562 C 0.1875 99.882812 0.300781 101.414062 0.453125 102.9375 C 0.601562 104.464844 0.789062 105.988281 1.015625 107.507812 C 1.238281 109.023438 1.503906 110.535156 1.800781 112.039062 C 2.101562 113.542969 2.4375 115.042969 2.808594 116.53125 C 3.183594 118.019531 3.589844 119.496094 4.035156 120.964844 C 4.480469 122.433594 4.964844 123.890625 5.480469 125.332031 C 5.996094 126.777344 6.550781 128.210938 7.136719 129.625 C 7.722656 131.042969 8.34375 132.445312 9 133.832031 C 9.65625 135.21875 10.347656 136.589844 11.070312 137.945312 C 11.792969 139.296875 12.550781 140.632812 13.339844 141.945312 C 14.125 143.261719 14.949219 144.558594 15.800781 145.835938 C 16.652344 147.109375 17.535156 148.363281 18.449219 149.597656 C 19.363281 150.828125 20.308594 152.039062 21.28125 153.222656 C 22.253906 154.410156 23.253906 155.570312 24.285156 156.707031 C 25.316406 157.84375 26.375 158.957031 27.457031 160.042969 C 28.542969 161.125 29.65625 162.183594 30.792969 163.214844 C 31.929688 164.246094 33.089844 165.246094 34.277344 166.21875 C 35.460938 167.191406 36.671875 168.136719 37.902344 169.050781 C 39.136719 169.964844 40.390625 170.847656 41.664062 171.699219 C 42.941406 172.550781 44.238281 173.375 45.554688 174.160156 C 46.867188 174.949219 48.203125 175.707031 49.554688 176.429688 C 50.910156 177.152344 52.28125 177.84375 53.667969 178.5 C 55.054688 179.15625 56.457031 179.777344 57.875 180.363281 C 59.289062 180.949219 60.722656 181.503906 62.167969 182.019531 C 63.609375 182.535156 65.066406 183.019531 66.535156 183.464844 C 68.003906 183.910156 69.480469 184.316406 70.96875 184.691406 C 72.457031 185.0625 73.957031 185.398438 75.460938 185.699219 C 76.964844 185.996094 78.476562 186.261719 79.992188 186.484375 C 81.511719 186.710938 83.035156 186.898438 84.5625 187.046875 C 86.085938 187.199219 87.617188 187.3125 89.148438 187.386719 C 90.683594 187.460938 92.214844 187.5 93.75 187.5 C 95.285156 187.5 96.816406 187.460938 98.351562 187.386719 C 99.882812 187.3125 101.414062 187.199219 102.9375 187.046875 C 104.464844 186.898438 105.988281 186.710938 107.507812 186.484375 C 109.023438 186.261719 110.535156 185.996094 112.039062 185.699219 C 113.542969 185.398438 115.042969 185.0625 116.53125 184.691406 C 118.019531 184.316406 119.496094 183.910156 120.964844 183.464844 C 122.433594 183.019531 123.890625 182.535156 125.332031 182.019531 C 126.777344 181.503906 128.210938 180.949219 129.625 180.363281 C 131.042969 179.777344 132.445312 179.15625 133.832031 178.5 C 135.21875 177.84375 136.589844 177.152344 137.945312 176.429688 C 139.296875 175.707031 140.632812 174.949219 141.945312 174.160156 C 143.261719 173.375 144.558594 172.550781 145.835938 171.699219 C 147.109375 170.847656 148.363281 169.964844 149.597656 169.050781 C 150.828125 168.136719 152.039062 167.191406 153.222656 166.21875 C 154.410156 165.246094 155.570312 164.246094 156.707031 163.214844 C 157.84375 162.183594 158.957031 161.125 160.042969 160.042969 C 161.125 158.957031 162.183594 157.84375 163.214844 156.707031 C 164.246094 155.570312 165.246094 154.410156 166.21875 153.222656 C 167.191406 152.039062 168.136719 150.828125 169.050781 149.597656 C 169.964844 148.363281 170.847656 147.109375 171.699219 145.835938 C 172.550781 144.558594 173.375 143.261719 174.160156 141.945312 C 174.949219 140.632812 175.707031 139.296875 176.429688 137.945312 C 177.152344 136.589844 177.84375 135.21875 178.5 133.832031 C 179.15625 132.445312 179.777344 131.042969 180.363281 129.625 C 180.949219 128.210938 181.503906 126.777344 182.019531 125.332031 C 182.535156 123.890625 183.019531 122.433594 183.464844 120.964844 C 183.910156 119.496094 184.316406 118.019531 184.691406 116.53125 C 185.0625 115.042969 185.398438 113.542969 185.699219 112.039062 C 185.996094 110.535156 186.261719 109.023438 186.484375 107.507812 C 186.710938 105.988281 186.898438 104.464844 187.046875 102.9375 C 187.199219 101.414062 187.3125 99.882812 187.386719 98.351562 C 187.460938 96.816406 187.5 95.285156 187.5 93.75 C 187.5 92.214844 187.460938 90.683594 187.386719 89.148438 C 187.3125 87.617188 187.199219 86.085938 187.046875 84.5625 C 186.898438 83.035156 186.710938 81.511719 186.484375 79.992188 C 186.261719 78.476562 185.996094 76.964844 185.699219 75.460938 C 185.398438 73.957031 185.0625 72.457031 184.691406 70.96875 C 184.316406 69.480469 183.910156 68.003906 183.464844 66.535156 C 183.019531 65.066406 182.535156 63.609375 182.019531 62.167969 C 181.503906 60.722656 180.949219 59.289062 180.363281 57.875 C 179.777344 56.457031 179.15625 55.054688 178.5 53.667969 C 177.84375 52.28125 177.152344 50.910156 176.429688 49.554688 C 175.707031 48.203125 174.949219 46.867188 174.160156 45.554688 C 173.375 44.238281 172.550781 42.941406 171.699219 41.664062 C 170.847656 40.390625 169.964844 39.136719 169.050781 37.902344 C 168.136719 36.671875 167.191406 35.460938 166.21875 34.277344 C 165.246094 33.089844 164.246094 31.929688 163.214844 30.792969 C 162.183594 29.65625 161.125 28.542969 160.042969 27.457031 C 158.957031 26.375 157.84375 25.316406 156.707031 24.285156 C 155.570312 23.253906 154.410156 22.253906 153.222656 21.28125 C 152.039062 20.308594 150.828125 19.363281 149.597656 18.449219 C 148.363281 17.535156 147.109375 16.652344 145.835938 15.800781 C 144.558594 14.949219 143.261719 14.125 141.945312 13.339844 C 140.632812 12.550781 139.296875 11.792969 137.945312 11.070312 C 136.589844 10.347656 135.21875 9.65625 133.832031 9 C 132.445312 8.34375 131.042969 7.722656 129.625 7.136719 C 128.210938 6.550781 126.777344 5.996094 125.332031 5.480469 C 123.890625 4.964844 122.433594 4.480469 120.964844 4.035156 C 119.496094 3.589844 118.019531 3.183594 116.53125 2.808594 C 115.042969 2.4375 113.542969 2.101562 112.039062 1.800781 C 110.535156 1.503906 109.023438 1.238281 107.507812 1.015625 C 105.988281 0.789062 104.464844 0.601562 102.9375 0.453125 C 101.414062 0.300781 99.882812 0.1875 98.351562 0.113281 C 96.816406 0.0390625 95.285156 0 93.75 0 Z M 146.738281 129.375 L 39.863281 129.375 C 39.429688 129.375 39.003906 129.332031 38.582031 129.25 C 38.160156 129.164062 37.75 129.039062 37.351562 128.875 C 36.953125 128.710938 36.574219 128.507812 36.214844 128.269531 C 35.859375 128.03125 35.527344 127.757812 35.222656 127.453125 C 34.917969 127.148438 34.644531 126.816406 34.40625 126.457031 C 34.167969 126.101562 33.964844 125.722656 33.800781 125.324219 C 33.632812 124.925781 33.511719 124.515625 33.425781 124.09375 C 33.34375 123.671875 33.300781 123.242188 33.300781 122.8125 C 33.300781 122.382812 33.34375 121.953125 33.425781 121.53125 C 33.511719 121.109375 33.632812 120.699219 33.800781 120.300781 C 33.964844 119.902344 34.167969 119.523438 34.40625 119.167969 C 34.644531 118.808594 34.917969 118.476562 35.222656 118.171875 C 35.527344 117.867188 35.859375 117.59375 36.214844 117.355469 C 36.574219 117.117188 36.953125 116.914062 37.351562 116.75 C 37.75 116.585938 38.160156 116.460938 38.582031 116.375 C 39.003906 116.292969 39.429688 116.25 39.863281 116.25 L 146.738281 116.25 C 147.167969 116.25 147.59375 116.292969 148.019531 116.375 C 148.441406 116.460938 148.851562 116.585938 149.25 116.75 C 149.648438 116.914062 150.023438 117.117188 150.382812 117.355469 C 150.742188 117.59375 151.074219 117.867188 151.378906 118.171875 C 151.683594 118.476562 151.953125 118.808594 152.195312 119.167969 C 152.433594 119.523438 152.636719 119.902344 152.800781 120.300781 C 152.964844 120.699219 153.089844 121.109375 153.175781 121.53125 C 153.257812 121.953125 153.300781 122.382812 153.300781 122.8125 C 153.300781 123.242188 153.257812 123.671875 153.175781 124.09375 C 153.089844 124.515625 152.964844 124.925781 152.800781 125.324219 C 152.636719 125.722656 152.433594 126.101562 152.195312 126.457031 C 151.953125 126.816406 151.683594 127.148438 151.378906 127.453125 C 151.074219 127.757812 150.742188 128.03125 150.382812 128.269531 C 150.023438 128.507812 149.648438 128.710938 149.25 128.875 C 148.851562 129.039062 148.441406 129.164062 148.019531 129.25 C 147.59375 129.332031 147.167969 129.375 146.738281 129.375 Z M 146.738281 101.25 L 39.863281 101.25 C 39.429688 101.25 39.003906 101.207031 38.582031 101.125 C 38.160156 101.039062 37.75 100.914062 37.351562 100.75 C 36.953125 100.585938 36.574219 100.382812 36.214844 100.144531 C 35.859375 99.90625 35.527344 99.632812 35.222656 99.328125 C 34.917969 99.023438 34.644531 98.691406 34.40625 98.332031 C 34.167969 97.976562 33.964844 97.597656 33.800781 97.199219 C 33.632812 96.800781 33.511719 96.390625 33.425781 95.96875 C 33.34375 95.546875 33.300781 95.117188 33.300781 94.6875 C 33.300781 94.257812 33.34375 93.828125 33.425781 93.40625 C 33.511719 92.984375 33.632812 92.574219 33.800781 92.175781 C 33.964844 91.777344 34.167969 91.398438 34.40625 91.042969 C 34.644531 90.683594 34.917969 90.351562 35.222656 90.046875 C 35.527344 89.742188 35.859375 89.46875 36.214844 89.230469 C 36.574219 88.992188 36.953125 88.789062 37.351562 88.625 C 37.75 88.460938 38.160156 88.335938 38.582031 88.25 C 39.003906 88.167969 39.429688 88.125 39.863281 88.125 L 146.738281 88.125 C 147.167969 88.125 147.59375 88.167969 148.019531 88.25 C 148.441406 88.335938 148.851562 88.460938 149.25 88.625 C 149.648438 88.789062 150.023438 88.992188 150.382812 89.230469 C 150.742188 89.46875 151.074219 89.742188 151.378906 90.046875 C 151.683594 90.351562 151.953125 90.683594 152.195312 91.042969 C 152.433594 91.398438 152.636719 91.777344 152.800781 92.175781 C 152.964844 92.574219 153.089844 92.984375 153.175781 93.40625 C 153.257812 93.828125 153.300781 94.257812 153.300781 94.6875 C 153.300781 95.117188 153.257812 95.546875 153.175781 95.96875 C 153.089844 96.390625 152.964844 96.800781 152.800781 97.199219 C 152.636719 97.597656 152.433594 97.976562 152.195312 98.332031 C 151.953125 98.691406 151.683594 99.023438 151.378906 99.328125 C 151.074219 99.632812 150.742188 99.90625 150.382812 100.144531 C 150.023438 100.382812 149.648438 100.585938 149.25 100.75 C 148.851562 100.914062 148.441406 101.039062 148.019531 101.125 C 147.59375 101.207031 147.167969 101.25 146.738281 101.25 Z M 146.738281 73.125 L 39.863281 73.125 C 39.429688 73.125 39.003906 73.082031 38.582031 73 C 38.160156 72.914062 37.75 72.789062 37.351562 72.625 C 36.953125 72.460938 36.574219 72.257812 36.214844 72.019531 C 35.859375 71.78125 35.527344 71.507812 35.222656 71.203125 C 34.917969 70.898438 34.644531 70.566406 34.40625 70.207031 C 34.167969 69.851562 33.964844 69.472656 33.800781 69.074219 C 33.632812 68.675781 33.511719 68.265625 33.425781 67.84375 C 33.34375 67.421875 33.300781 66.992188 33.300781 66.5625 C 33.300781 66.132812 33.34375 65.703125 33.425781 65.28125 C 33.511719 64.859375 33.632812 64.449219 33.800781 64.050781 C 33.964844 63.652344 34.167969 63.273438 34.40625 62.917969 C 34.644531 62.558594 34.917969 62.226562 35.222656 61.921875 C 35.527344 61.617188 35.859375 61.34375 36.214844 61.105469 C 36.574219 60.867188 36.953125 60.664062 37.351562 60.5 C 37.75 60.335938 38.160156 60.210938 38.582031 60.125 C 39.003906 60.042969 39.429688 60 39.863281 60 L 146.738281 60 C 147.167969 60 147.59375 60.042969 148.019531 60.125 C 148.441406 60.210938 148.851562 60.335938 149.25 60.5 C 149.648438 60.664062 150.023438 60.867188 150.382812 61.105469 C 150.742188 61.34375 151.074219 61.617188 151.378906 61.921875 C 151.683594 62.226562 151.953125 62.558594 152.195312 62.917969 C 152.433594 63.273438 152.636719 63.652344 152.800781 64.050781 C 152.964844 64.449219 153.089844 64.859375 153.175781 65.28125 C 153.257812 65.703125 153.300781 66.132812 153.300781 66.5625 C 153.300781 66.992188 153.257812 67.421875 153.175781 67.84375 C 153.089844 68.265625 152.964844 68.675781 152.800781 69.074219 C 152.636719 69.472656 152.433594 69.851562 152.195312 70.207031 C 151.953125 70.566406 151.683594 70.898438 151.378906 71.203125 C 151.074219 71.507812 150.742188 71.78125 150.382812 72.019531 C 150.023438 72.257812 149.648438 72.460938 149.25 72.625 C 148.851562 72.789062 148.441406 72.914062 148.019531 73 C 147.59375 73.082031 147.167969 73.125 146.738281 73.125 Z M 146.738281 73.125 " fill-opacity="1" fill-rule="nonzero" style="&#10;    fill: #fff;&#10;"/></g></svg>