<svg xmlns="http://www.w3.org/2000/svg" id="Layer_1" data-name="Layer 1" viewBox="0 0 395.15 301.57" style="&#10;"><defs><style>.cls-1{fill:none;}.cls-1,.cls-2{stroke:#fff;stroke-miterlimit:10;stroke-width:3px;}.cls-2{fill:#fff;}</style></defs><title>area-floor-size-icon</title><path d="M63.5,135.5,251.93,1.09a7.37,7.37,0,0,1,8.82,0L449,136.7c4.31,3.1,5.83,10,3.38,15.48a10.59,10.59,0,0,1-3.13,4.08L263,299.54a7.42,7.42,0,0,1-9.44-.06l-190.76-144c-4.25-3.22-5.64-10.2-3.09-15.57A10.21,10.21,0,0,1,63.5,135.5ZM256.29,24l-171,122,173,130.6L426.89,146.89Z" transform="translate(-58.43 0.36)" style="&#10;    fill: #fff;&#10;"/><line class="cls-1" x1="28.02" y1="146.81" x2="369.64" y2="147.69"/><line class="cls-1" x1="197.87" y1="24.37" x2="199.85" y2="276.96"/><line class="cls-1" x1="66.91" y1="102.82" x2="324.24" y2="102.82"/><line class="cls-1" x1="140.24" y1="58.82" x2="250.91" y2="58.82"/><line class="cls-1" x1="369.67" y1="147.69" x2="21.24" y2="146.79"/><line class="cls-1" x1="329.57" y1="192.86" x2="72.24" y2="192.86"/><line class="cls-1" x1="256.24" y1="236.85" x2="145.57" y2="236.85"/><line class="cls-1" x1="145.57" y1="58.82" x2="145.57" y2="236.85"/><line class="cls-1" x1="86.45" y1="103.85" x2="86.45" y2="192.86"/><line class="cls-1" x1="250.91" y1="237.68" x2="250.91" y2="57.36"/><line class="cls-2" x1="309.57" y1="102.82" x2="309.57" y2="192.86"/></svg>