<svg xmlns="http://www.w3.org/2000/svg" xmlns:xlink="http://www.w3.org/1999/xlink" version="1.1" width="1000" height="1000" viewBox="0 0 1000 1000" xml:space="preserve">
<desc>Created with Fabric.js 3.5.0</desc>
<defs>
</defs>
<rect x="0" y="0" width="100%" height="100%" fill="rgba(255,255,255,0)"/>
<g transform="matrix(2.4549 -5.9101 5.9101 2.4549 500.0037 499.9988)" id="374689">
<path style="stroke: none; stroke-width: 1; stroke-dasharray: none; stroke-linecap: butt; stroke-dashoffset: 0; stroke-linejoin: miter; stroke-miterlimit: 4; is-custom-font: none; font-file-url: none; fill: rgb(255,255,255); fill-rule: nonzero; opacity: 1;" vector-effect="non-scaling-stroke" transform=" translate(-59.4469, -62.3234)" d="M 42.58 69.16 a 2.52 2.52 0 0 1 -0.48 -0.3 c -2 -1.55 -4.09 -3.28 -5.94 -4.8 c -2.69 -2.21 -5.79 -4.76 -8 -6.57 a 11.36 11.36 0 0 0 -4.76 -2.4 a 5.07 5.07 0 0 0 -2.69 0.11 a 2.82 2.82 0 0 0 -1.44 1.48 A 9.48 9.48 0 0 0 18.75 61 a 16.75 16.75 0 0 0 1.48 5.35 A 33.68 33.68 0 0 0 24.14 73 a 1 1 0 0 1 0.18 0.3 L 47.67 106.6 a 2.93 2.93 0 0 1 0.52 1.4 c 0.48 3.84 1.29 6.75 2.47 8.56 a 3.81 3.81 0 0 0 3.43 2 H 90.83 a 11 11 0 0 0 6.27 -2 a 20.06 20.06 0 0 0 5.72 -6.71 s 0.07 -0.11 0.11 -0.15 c 0.66 -1.14 1.55 -2.62 2.4 -4 c 3.73 -6.12 7 -11.47 7.34 -19.07 l -0.22 -10.48 a 1.64 1.64 0 0 1 0 -0.44 c 0 -0.15 0 -1.14 0 -2.47 c 0.07 -6.93 0.18 -15.49 -6.16 -16.56 H 102.2 c 0 2 -0.15 4 -0.26 5.87 c -0.11 1.73 -0.22 3.36 -0.22 4.94 a 3.06 3.06 0 1 1 -6.12 0 c 0 -1.59 0.11 -3.43 0.22 -5.35 c 0.41 -6.53 0.89 -14 -4.32 -14.94 H 87.44 a 4.93 4.93 0 0 1 -0.66 -0.07 c 0 2.36 -0.11 4.8 -0.26 7.16 c -0.11 1.73 -0.22 3.36 -0.22 4.94 a 3.06 3.06 0 0 1 -6.12 0 c 0 -1.59 0.11 -3.43 0.22 -5.35 c 0.41 -6.53 0.88 -14 -4.32 -14.94 H 72 a 3 3 0 0 1 -0.81 -0.11 V 50.65 a 3.06 3.06 0 1 1 -6.12 0 v -32 c 0 -5.35 -2.18 -8.74 -5 -10.14 a 7.15 7.15 0 0 0 -3.21 -0.77 a 7.28 7.28 0 0 0 -3.21 0.77 c -2.77 1.4 -4.91 4.8 -4.91 10.29 v 56 a 3.06 3.06 0 0 1 -6.12 0 V 69.16 Z M 12.29 28.69 a 2.61 2.61 0 0 0 3.78 -3.6 L 8.7 17.38 H 30.84 a 2.61 2.61 0 1 0 0 -5.22 H 8.7 l 7.38 -7.75 A 2.61 2.61 0 0 0 12.3 0.81 L 0.72 13 a 2.62 2.62 0 0 0 0 3.6 L 12.29 28.69 Z M 102.52 0.81 a 2.61 2.61 0 1 0 -3.78 3.6 l 7.37 7.71 H 84 a 2.61 2.61 0 1 0 0 5.22 h 22.14 l -7.38 7.75 a 2.61 2.61 0 0 0 3.78 3.6 l 11.58 -12.16 a 2.62 2.62 0 0 0 0 -3.6 L 102.52 0.81 Z m -31.32 32 a 3 3 0 0 1 0.81 -0.11 h 4.24 a 5.53 5.53 0 0 1 0.7 0.07 c 5.64 0.89 8.19 4.17 9.22 8.45 a 3.24 3.24 0 0 1 1.29 -0.3 H 91.7 a 5.53 5.53 0 0 1 0.7 0.07 c 6.09 1 8.52 4.68 9.41 9.41 a 1.83 1.83 0 0 1 0.48 0 h 4.24 a 5.53 5.53 0 0 1 0.7 0.07 c 11.66 1.81 11.51 13.39 11.4 22.72 v 2.43 l 0.26 10.77 v 0.33 c -0.44 9.19 -4.06 15.12 -8.23 22 c -0.7 1.14 -1.4 2.32 -2.36 4 c 0 0 0 0.07 -0.07 0.11 a 26.19 26.19 0 0 1 -7.56 8.71 a 17 17 0 0 1 -9.7 3.1 H 54.27 a 9.62 9.62 0 0 1 -8.6 -4.65 c -1.7 -2.51 -2.8 -6 -3.39 -10.48 L 19.41 76.72 l -0.11 -0.11 a 42.42 42.42 0 0 1 -4.61 -7.78 a 23.05 23.05 0 0 1 -2 -7.41 a 15.16 15.16 0 0 1 1.07 -7.23 a 8.62 8.62 0 0 1 4.76 -4.65 a 10.52 10.52 0 0 1 6.16 -0.44 a 17.26 17.26 0 0 1 7.49 3.69 c 1.84 1.55 4.94 4.06 8 6.53 l 2.51 2.07 V 18.84 c 0 -8.15 3.62 -13.39 8.3 -15.75 a 13.12 13.12 0 0 1 11.95 0 c 4.69 2.36 8.37 7.64 8.37 15.64 V 32.82 l -0.08 0 Z" stroke-linecap="round"/>
</g>
</svg>